Coordinates																	
version=1																	
nRows=30																	
nColumns=18																	
inDegrees=yes																	
endheader																	
time	ground_thorax_rot_x	ground_thorax_rot_y	ground_thorax_rot_z	ground_thorax_tx	ground_thorax_ty	ground_thorax_tz	clav_prot	clav_elev	scapula_abduction	scapula_elevation	scapula_upward_rot	scapula_winging	plane_elv	shoulder_elv	axial_rot	elbow_flexion	pro_sup
22.33	1.27357711	-8.47673014	-11.4613183	0	0	0	-18.67055581	-4.44407731	-5.31470042	-4.0734936	13.58575973	4.89427012	-18.3737777	14.43615824	46.90227274	0	34.32
22.34	1.24316952	-8.43803135	-11.51175712	0	0	0	-18.66022155	-4.43309987	-5.2992781	-4.06451708	13.58572293	4.88937488	-18.33129398	14.36791597	46.90278323	0	34.32
22.35	1.35534458	-8.51826888	-11.6017735	0	0	0	-18.67527941	-4.33814413	-5.39153023	-3.97332777	13.51159324	4.88111936	-16.12671797	14.92851218	40.64794775	0	34.32
22.36	1.37017523	-8.52500291	-11.62387659	0	0	0	-18.66616239	-4.33534489	-5.38951399	-3.96461871	13.4885634	4.88456453	-16.121203	14.87326552	40.66018129	0	34.32
22.37	1.08944889	-8.43861147	-11.61055347	0	0	0	-18.69133002	-4.59584687	-5.5734511	-4.07487856	13.14300446	5.05698599	-15.83414306	15.09690296	38.02540443	0	34.32
22.38	1.12369212	-8.46961469	-11.62536175	0	0	0	-18.7029962	-4.59092548	-5.58021814	-4.07837611	13.16854069	5.05109369	-15.824357	15.09947422	38.05355434	0	34.32
22.39	1.36309727	-8.54166784	-11.56415141	0	0	0	-18.69171572	-4.3154326	-5.33302421	-3.99810885	13.66981115	4.83662583	-17.61002786	14.21717888	47.19968754	0	34.32
22.4	1.08075861	-8.36532336	-11.68723717	0	0	0	-18.78425323	-4.84448011	-5.73887308	-4.24297603	13.03874249	5.17806866	-15.9558492	15.40823497	37.90848515	0	34.32
22.41	1.08126565	-8.33215864	-11.69185531	0	0	0	-18.78040377	-4.8313106	-5.71938146	-4.23982752	13.06598204	5.16594361	-15.9626085	15.40243903	37.92839027	0	34.32
22.42	1.11142342	-8.42876995	-11.58679944	0	0	0	-18.64523317	-4.67647659	-5.42978442	-4.15423373	13.21930993	5.05596616	-16.71163385	15.26045002	38.64805758	0	34.32
22.43	1.29021191	-8.43146855	-11.63933894	0	0	0	-18.72926706	-4.41549094	-5.38588247	-4.07200533	13.6517326	4.87815908	-17.03800276	14.80378233	39.67199964	0	34.32
22.44	1.22910139	-8.44034634	-11.6617702	0	0	0	-18.7234333	-4.38943327	-5.38771494	-4.04899609	13.64144324	4.87190073	-17.01524051	14.78803801	39.68750166	0	34.32
22.45	1.3037079	-8.49339804	-11.55696082	0	0	0	-18.74169082	-4.20721404	-5.42615128	-3.92697921	13.704271	4.80259225	-17.38103493	14.3719126	44.51934277	0	34.32
22.46	1.08416973	-8.30093428	-11.71858991	0	0	0	-18.94516646	-4.58800604	-5.89399956	-4.13899485	13.3590742	5.04021809	-16.22961589	14.92486677	38.93084256	0	34.32
22.47	1.07699779	-8.36707689	-11.70080805	0	0	0	-18.95133665	-4.57987426	-5.89091292	-4.14027401	13.38642598	5.03205076	-16.22191356	14.94863373	38.95746267	0	34.32
22.48	0.91166932	-8.59616401	-11.94718331	0	0	0	-18.79522085	-4.86474803	-5.3977827	-4.41879436	13.64977566	5.03325308	-17.79474499	14.36786987	44.6564258	0	34.32
22.49	1.29334028	-8.5660384	-11.60921004	0	0	0	-18.81836104	-4.16737117	-5.51868299	-3.92341804	13.79185256	4.78030867	-17.51193746	14.1393416	47.1619461	0	34.32
22.5	1.18932302	-8.49408965	-11.63607833	0	0	0	-18.81712947	-4.30942675	-5.6124212	-3.97417509	13.57034108	4.88007068	-17.10347789	14.49029648	44.75500644	0	34.32
22.51	1.12170227	-8.58610087	-11.61785913	0	0	0	-18.68623713	-4.31180507	-5.38773353	-3.96671829	13.56138091	4.86212552	-17.3588662	14.56874368	44.24094601	0	34.32
22.52	1.24173656	-8.60640807	-11.65835515	0	0	0	-18.68779175	-4.21126255	-5.370582	-3.90944285	13.63620284	4.81247723	-16.48093648	14.97539518	39.13135851	0	34.32
22.53	1.19734326	-8.46624003	-11.5834753	0	0	0	-18.74637551	-4.20939318	-5.54240993	-3.88042527	13.51884928	4.8511559	-16.78035533	15.02271165	39.32117066	0	34.32
22.54	1.3035896	-8.54823241	-11.57328454	0	0	0	-18.66584583	-4.0467777	-5.31214002	-3.80897651	13.737425	4.73315175	-17.52923612	14.5759878	43.77784358	0	34.32
22.55	1.28238173	-8.55200412	-11.65059501	0	0	0	-18.68059015	-4.18526034	-5.42195878	-3.86346171	13.5376934	4.82853671	-16.65130641	14.97595482	41.34735119	0	34.32
22.56	1.24904608	-8.61096054	-11.68965788	0	0	0	-18.67171571	-4.20861979	-5.37707728	-3.89136278	13.5780242	4.82386483	-16.68415495	14.90198928	41.37283394	0	34.32
22.57	1.16252196	-8.68348354	-11.66236183	0	0	0	-18.59561659	-4.32408904	-5.28989204	-3.94273837	13.45203747	4.87879962	-16.73746178	15.04863385	40.32070953	0	34.32
22.58	1.26804792	-8.62192684	-11.70281292	0	0	0	-18.75893119	-4.18035834	-5.43473837	-3.91978235	13.75193232	4.78494026	-16.91161268	14.87925759	39.40206819	0	34.32
22.59	1.16891421	-8.59074312	-11.67675174	0	0	0	-18.74580288	-4.29179936	-5.45383492	-3.97379742	13.63495678	4.84691798	-17.28911312	14.79746317	40.82318397	0	34.32
22.6	1.27834431	-8.67711361	-11.63695031	0	0	0	-18.71721705	-4.05502784	-5.3065646	-3.85957306	13.89691003	4.70334054	-18.01084044	14.14159387	46.89387931	0	34.32
22.61	1.19361202	-8.71057133	-11.64330054	0	0	0	-18.64429024	-4.17308625	-5.22860903	-3.91120609	13.76353347	4.76118023	-17.9012906	14.29758201	45.688562	0	34.32
22.62	1.23202415	-8.80238573	-11.69707308	0	0	0	-18.5696177	-4.20594215	-5.05581915	-3.94758186	13.82177939	4.74434323	-17.53239253	14.61283721	42.38642519	0	34.32
